<?xml version="1.0" standalone="no"?>
<!DOCTYPE svg PUBLIC "-//W3C//DTD SVG 20010904//EN"
 "http://www.w3.org/TR/2001/REC-SVG-20010904/DTD/svg10.dtd">
<svg version="1.0" xmlns="http://www.w3.org/2000/svg"
 width="513.000000pt" height="414.000000pt" viewBox="0 0 513.000000 414.000000"
 preserveAspectRatio="xMidYMid meet">
<metadata>
Created by potrace 1.16, written by Peter Selinger 2001-2019
</metadata>
<g transform="translate(0.000000,414.000000) scale(0.100000,-0.100000)"
fill="#000000" stroke="none">
<path d="M1115 3993 c-16 -2 -84 -13 -150 -23 -66 -11 -164 -20 -218 -20 -117
0 -148 -13 -224 -91 -69 -71 -92 -120 -104 -228 -16 -132 18 -262 84 -317 l30
-25 -36 -77 c-42 -89 -51 -131 -67 -297 -7 -66 -16 -128 -21 -137 -19 -36 -11
-63 24 -73 27 -9 32 -14 29 -37 -2 -20 2 -28 13 -28 10 0 15 -10 15 -34 0 -24
-16 -57 -55 -116 -31 -46 -58 -95 -62 -109 -3 -14 -19 -53 -33 -86 -43 -94
-45 -118 -16 -151 21 -25 33 -30 88 -34 l63 -5 5 -68 c3 -45 10 -71 20 -77 12
-7 12 -12 2 -22 -22 -22 -13 -61 23 -98 32 -33 36 -43 41 -106 3 -38 10 -82
16 -97 26 -67 153 -104 328 -94 124 6 163 -9 168 -66 l3 -38 -78 -35 c-43 -19
-100 -45 -128 -57 -27 -12 -68 -38 -91 -57 -23 -19 -76 -64 -118 -99 -80 -66
-180 -179 -254 -287 -43 -61 -118 -228 -167 -369 -32 -93 -37 -208 -12 -266
22 -53 81 -114 134 -140 57 -28 239 -38 353 -20 41 7 131 21 200 31 69 10 186
28 260 40 74 11 221 29 325 40 105 11 255 26 335 35 258 27 439 35 785 35 402
0 672 -12 1045 -46 276 -25 379 -38 695 -90 228 -38 458 -41 520 -7 52 28 110
88 130 135 25 62 20 176 -14 277 -47 140 -119 299 -166 370 -73 108 -175 225
-255 291 -41 34 -95 81 -120 104 -25 23 -64 50 -86 60 -38 16 -42 22 -47 64
-4 26 -9 57 -13 69 -10 37 60 63 258 97 20 4 60 24 88 45 28 21 69 44 91 51
65 22 115 94 125 184 6 48 3 62 -21 110 -28 54 -28 55 -11 105 21 64 20 88 -1
100 -17 9 -16 11 5 26 27 20 28 40 2 96 -11 24 -20 58 -20 75 0 27 4 32 40 43
62 19 100 56 100 99 0 21 -4 43 -9 51 -5 8 -68 73 -140 145 l-130 131 -7 85
c-7 97 -19 130 -75 216 -21 33 -46 85 -55 115 -19 63 -65 131 -130 191 -64 59
-71 67 -102 114 -96 147 -239 234 -492 299 -192 50 -353 58 -508 25 -91 -19
-204 -59 -252 -89 -44 -27 -174 -138 -217 -183 -52 -57 -109 -174 -127 -263
-8 -38 -26 -95 -40 -125 -14 -30 -35 -93 -48 -140 -43 -162 -25 -554 31 -661
26 -50 11 -59 -23 -14 -36 47 -60 45 -86 -6 -19 -36 -24 -40 -48 -34 -41 10
-44 18 -32 86 23 125 -9 534 -55 694 -13 44 -26 96 -30 115 -16 76 -130 266
-205 340 -40 41 -74 64 -125 85 -95 39 -236 107 -320 155 -159 91 -430 140
-630 113z m1881 -2089 c9 -33 -19 -71 -75 -102 -51 -29 -61 -47 -105 -203 -20
-68 -47 -147 -61 -175 -28 -58 -61 -92 -74 -78 -7 8 16 107 61 254 6 19 38 78
72 130 33 52 68 108 76 123 17 34 65 77 86 77 7 0 17 -12 20 -26z m-902 -70
c-9 -30 -21 -57 -25 -60 -10 -6 -49 68 -49 94 0 25 18 39 55 44 38 4 41 -8 19
-78z m357 -184 c14 0 10 -50 -5 -66 -20 -20 -25 -18 -37 12 -12 34 -2 67 18
60 8 -3 19 -6 24 -6z"/>
</g>
</svg>
